# File created by Blade
# Date/Time:  Wed Jan 21 17:10:49 2015
#---------------------------------------------------------
:version 1.10
:name HOM
:units
  mass 1.0
  length 1.000000
  angle deg
:documentation
     Acclaim Skeleton File
:root
   axis xyz
   order TX TY TZ RX RY RZ
   position 0.000000 0.000000 0.000000
   orientation 0 0 0
:bonedata
   begin
      id 1
      name Spine_dum
      direction 0.000000 1.000000 0.000000
      length 7.067664
      axis 0.0 0.0 0.0 xyz
   end
   begin
      id 2
      name LeftUpLeg_dum
      direction 1.000000 0.000000 0.000000
      length 4.013002
      axis 0.0 0.0 0.0 xyz
   end
   begin
      id 3
      name RightUpLeg_dum
      direction -1.000000 0.000000 0.000000
      length 4.013002
      axis 0.0 0.0 0.0 xyz
   end
   begin
      id 4
      name Spine
      direction 0.000000 1.000000 0.000000
      length 0.000000
      axis 0.0 0.0 0.0 xyz
      dof rx ry rz
   end
   begin
      id 5
      name Spine_dum1
      direction 0.000000 1.000000 0.000000
      length 15.039886
      axis 0.0 0.0 0.0 xyz
   end
   begin
      id 6
      name Spine_dum2
      direction 0.000000 1.000000 0.000000
      length 10.530368
      axis 0.0 0.0 0.0 xyz
   end
   begin
      id 7
      name Spine_dum3
      direction 0.000000 1.000000 0.000000
      length 10.530368
      axis 0.0 0.0 0.0 xyz
   end
   begin
      id 8
      name Head
      direction 0.000000 1.000000 0.000000
      length 4.527550
      axis 0.0 0.0 0.0 xyz
      dof rx ry rz
   end
   begin
      id 9
      name LeftShoulder
      direction 1.000000 0.000000 0.000000
      length 7.028855
      axis 0.0 0.0 -90.0 xyz
      dof rx ry rz
   end
   begin
      id 10
      name LeftArm
      direction 1.000000 0.000000 0.000000
      length 10.797705
      axis 0.0 0.0 -90.0 xyz
      dof rx ry rz
   end
   begin
      id 11
      name LeftForeArm
      direction 1.000000 0.000000 0.000000
      length 7.907442
      axis 0.0 0.0 -90.0 xyz
      dof ry rz rx
   end
   begin
      id 12
      name LeftHand
      direction 0.000000 0.000000 0.000000
      length 0.000000
      axis 0.0 0.0 -90.0 xyz
      dof rx ry rz
   end
   begin
      id 13
      name LeftHand_dum1
      direction 0.000000 0.000000 0.000000
      length 0.000000
      axis 0.0 0.0 -90.0 xyz
   end
   begin
      id 14
      name LeftHand_dum2
      direction 1.000000 0.000000 0.000000
      length 3.937000
      axis 0.0 0.0 -90.0 xyz
   end
   begin
      id 15
      name LeftHandThumb1
      direction 0.000000 0.000000 1.000000
      length 3.937000
      axis 0.0 0.0 -90.0 xyz
      dof rx rz ry
   end
   begin
      id 16
      name RightShoulder
      direction -1.000000 0.000000 0.000000
      length 7.028855
      axis 0.0 0.0 90.0 xyz
      dof rx ry rz
   end
   begin
      id 17
      name RightArm
      direction -1.000000 0.000000 0.000000
      length 10.797705
      axis 0.0 0.0 90.0 xyz
      dof rx ry rz
   end
   begin
      id 18
      name RightForeArm
      direction -1.000000 0.000000 0.000000
      length 7.907442
      axis 0.0 0.0 90.0 xyz
      dof ry rz rx
   end
   begin
      id 19
      name RightHand
      direction 0.000000 0.000000 0.000000
      length 0.000000
      axis 0.0 0.0 90.0 xyz
      dof rx ry rz
   end
   begin
      id 20
      name RightHand_dum1
      direction 0.000000 0.000000 0.000000
      length 0.000000
      axis 0.0 0.0 90.0 xyz
   end
   begin
      id 21
      name RightHand_dum2
      direction -1.000000 0.000000 0.000000
      length 3.937000
      axis 0.0 0.0 90.0 xyz
   end
   begin
      id 22
      name RightHandThumb1
      direction 0.000000 0.000000 1.000000
      length 3.937000
      axis 0.0 0.0 90.0 xyz
      dof rx rz ry
   end
   begin
      id 23
      name LeftUpLeg
      direction 0.000000 -1.000000 0.000000
      length 16.899758
      axis 0.0 0.0 0.0 xyz
      dof rx ry rz
   end
   begin
      id 24
      name LeftLeg
      direction 0.000000 -1.000000 0.000000
      length 17.389183
      axis 0.0 0.0 0.0 xyz
      dof rx ry rz
   end
   begin
      id 25
      name LeftFoot
      direction 0.000000 -0.258819 0.965926
      length 4.924528
      axis 15.0 0.0 0.0 xyz
      dof rx ry rz
   end
   begin
      id 26
      name LeftToeBase
      direction 0.000000 0.000000 1.000000
      length 2.952750
      axis 0.0 0.0 0.0 xyz
      dof rx ry rz
   end
   begin
      id 27
      name RightUpLeg
      direction 0.000000 -1.000000 0.000000
      length 16.899758
      axis 0.0 0.0 0.0 xyz
      dof rx ry rz
   end
   begin
      id 28
      name RightLeg
      direction 0.000000 -1.000000 0.000000
      length 17.389183
      axis 0.0 0.0 0.0 xyz
      dof rx ry rz
   end
   begin
      id 29
      name RightFoot
      direction 0.000000 -0.258819 0.965926
      length 4.924528
      axis 15.0 0.0 0.0 xyz
      dof rx ry rz
   end
   begin
      id 30
      name RightToeBase
      direction 0.000000 0.000000 1.000000
      length 2.952750
      axis 0.0 0.0 0.0 xyz
      dof rx ry rz
   end
:hierarchy
   begin
      root Spine_dum LeftUpLeg_dum RightUpLeg_dum
      Spine_dum Spine
      LeftUpLeg_dum LeftUpLeg
      RightUpLeg_dum RightUpLeg
      Spine Spine_dum1 Spine_dum2 Spine_dum3
      Spine_dum1 Head
      Spine_dum2 LeftShoulder
      Spine_dum3 RightShoulder
      LeftShoulder LeftArm
      LeftArm LeftForeArm
      LeftForeArm LeftHand
      LeftHand LeftHand_dum1 LeftHand_dum2
      LeftHand_dum1 LeftHandThumb1
      RightShoulder RightArm
      RightArm RightForeArm
      RightForeArm RightHand
      RightHand RightHand_dum1 RightHand_dum2
      RightHand_dum1 RightHandThumb1
      LeftUpLeg LeftLeg
      LeftLeg LeftFoot
      LeftFoot LeftToeBase
      RightUpLeg RightLeg
      RightLeg RightFoot
      RightFoot RightToeBase
   end

# File created by Blade
# Date/Time:  Wed Jan 21 17:10:37 2015
# Frame Rate: 120.000 fps
#------------------------------------------------------
:FULLY-SPECIFIED
:DEGREES
48
root 18.440709 35.370212 -23.972112 -177.588345 -2.654632 -179.381470
Spine -11.838797 -1.661091 -0.152269
Head 11.096062 -2.980959 0.571294
LeftShoulder -13.198147 -28.273920 18.277330
LeftArm 6.186079 2.796574 -7.902230
LeftForeArm 10.637666 -0.000000 -2.874040
LeftHand -8.592344 0.000000 -3.921370
LeftHandThumb1 -26.253704 0.000000 33.147579
RightShoulder -12.665067 -7.583804 -7.686447
RightArm 10.884777 34.515087 9.321049
RightForeArm -37.565684 -0.000000 6.389558
RightHand -10.598429 -0.000000 6.342078
RightHandThumb1 -24.326973 -0.000000 -32.862282
LeftUpLeg 7.503463 9.227402 3.871128
LeftLeg -6.267326 -0.000000 0.000000
LeftFoot -19.558558 25.942410 -13.060749
LeftToeBase 24.609447 -0.000000 -0.000000
RightUpLeg 6.585673 -12.857081 -2.661852
RightLeg -3.830469 -0.000000 0.000000
RightFoot -21.179353 -27.387555 16.541565
RightToeBase 24.850490 -0.000000 -0.000000
49
root 18.443937 35.374429 -23.954279 -177.606627 -2.605813 -179.378498
Spine -11.784440 -1.578220 -0.153848
Head 11.521079 -3.074755 0.539442
LeftShoulder -13.007897 -28.388722 18.077012
LeftArm 6.226769 3.008819 -7.758137
LeftForeArm 10.648918 -0.000000 -2.779131
LeftHand -8.649953 -0.000000 -3.800083
LeftHandThumb1 -26.253704 0.000000 33.147579
RightShoulder -12.542704 -7.518923 -7.583193
RightArm 10.768740 34.323846 9.101301
RightForeArm -37.430313 0.000000 6.474678
RightHand -10.713030 -0.000000 6.179648
RightHandThumb1 -24.326973 -0.000000 -32.862282
LeftUpLeg 7.490989 9.265489 3.874546
LeftLeg -6.248826 -0.000000 0.000000
LeftFoot -19.530492 25.947338 -13.077206
LeftToeBase 24.654855 -0.000000 -0.000000
RightUpLeg 6.547357 -12.809187 -2.651085
RightLeg -3.799276 -0.000000 0.000000
RightFoot -21.143630 -27.396224 16.469065
RightToeBase 24.873165 -0.000000 -0.000000
50
root 18.448252 35.378656 -23.935461 -177.627414 -2.577691 -179.374066
Spine -11.717021 -1.523872 -0.157022
Head 11.952689 -3.149704 0.510209
LeftShoulder -12.845608 -28.500217 17.865759
LeftArm 6.320741 3.259564 -7.605270
LeftForeArm 10.622397 -0.000000 -2.730251
LeftHand -8.642333 -0.000000 -3.635556
LeftHandThumb1 -26.253704 0.000000 33.147579
RightShoulder -12.399798 -7.438198 -7.432765
RightArm 10.696241 34.013786 8.816082
RightForeArm -37.196866 -0.000000 6.428036
RightHand -10.774090 -0.000000 5.925001
RightHandThumb1 -24.326973 -0.000000 -32.862282
LeftUpLeg 7.468953 9.287618 3.881496
LeftLeg -6.221473 -0.000000 0.000000
LeftFoot -19.512246 25.959649 -13.099362
LeftToeBase 24.582725 -0.000000 -0.000000
RightUpLeg 6.517620 -12.774804 -2.637709
RightLeg -3.774531 -0.000000 0.000000
RightFoot -21.115821 -27.402139 16.462972
RightToeBase 24.951609 -0.000000 -0.000000
51
root 18.453376 35.383439 -23.913143 -177.647445 -2.583275 -179.366935
Spine -11.645967 -1.482694 -0.150803
Head 12.426784 -3.199259 0.429246
LeftShoulder -12.614820 -28.646868 17.584143
LeftArm 6.378706 3.546945 -7.432090
LeftForeArm 10.534958 -0.000000 -2.619021
LeftHand -8.696421 -0.000000 -3.478275
LeftHandThumb1 -26.253704 0.000000 33.147579
RightShoulder -12.195697 -7.282097 -7.333266
RightArm 10.436322 34.008514 8.624207
RightForeArm -37.370238 -0.000000 6.697138
RightHand -10.877871 -0.000000 5.860318
RightHandThumb1 -24.326973 -0.000000 -32.862282
LeftUpLeg 7.423524 9.282056 3.894331
LeftLeg -6.170734 -0.000000 0.000000
LeftFoot -19.497341 25.955008 -13.112177
LeftToeBase 24.590191 -0.000000 -0.000000
RightUpLeg 6.486375 -12.782684 -2.619310
RightLeg -3.751250 -0.000000 0.000000
RightFoot -21.090484 -27.381735 16.539875
RightToeBase 24.800382 -0.000000 -0.000000
52
root 18.459452 35.388018 -23.888534 -177.665489 -2.576087 -179.361878
Spine -11.566307 -1.445032 -0.153914
Head 12.933135 -3.210450 0.394852
LeftShoulder -12.416683 -28.757989 17.295780
LeftArm 6.506999 3.828793 -7.262716
LeftForeArm 10.484408 -0.000000 -2.558265
LeftHand -8.707102 0.000000 -3.219700
LeftHandThumb1 -26.253704 0.000000 33.147579
RightShoulder -12.015512 -7.144960 -7.182382
RightArm 10.302153 33.680178 8.376016
RightForeArm -37.326978 -0.000000 6.759988
RightHand -10.935460 -0.000000 5.627916
RightHandThumb1 -24.326973 -0.000000 -32.862282
LeftUpLeg 7.377385 9.286804 3.902948
LeftLeg -6.127106 -0.000000 0.000000
LeftFoot -19.448331 25.967143 -13.104043
LeftToeBase 24.549562 -0.000000 -0.000000
RightUpLeg 6.444511 -12.780333 -2.600631
RightLeg -3.717601 -0.000000 0.000000
RightFoot -21.078046 -27.403159 16.490790
RightToeBase 24.903108 -0.000000 -0.000000
53
root 18.465095 35.392826 -23.862627 -177.692518 -2.537462 -179.357298
Spine -11.480471 -1.357026 -0.149544
Head 13.489497 -3.300077 0.305046
LeftShoulder -12.163479 -28.878572 16.947252
LeftArm 6.583203 4.095357 -7.092677
LeftForeArm 10.536574 -0.000000 -2.382392
LeftHand -8.781531 -0.000000 -2.825436
LeftHandThumb1 -26.253704 0.000000 33.147579
RightShoulder -11.865080 -7.076657 -7.037896
RightArm 10.280884 33.411744 8.226043
RightForeArm -37.105490 -0.000000 6.711657
RightHand -11.143438 -0.000000 5.202148
RightHandThumb1 -24.326973 -0.000000 -32.862282
LeftUpLeg 7.353130 9.331407 3.910109
LeftLeg -6.101656 -0.000000 0.000000
LeftFoot -19.418907 25.966814 -13.121435
LeftToeBase 24.529536 -0.000000 -0.000000
RightUpLeg 6.396751 -12.762474 -2.587260
RightLeg -3.671304 -0.000000 0.000000
RightFoot -21.024477 -27.368257 16.446568
RightToeBase 24.995926 -0.000000 -0.000000
54
root 18.472489 35.398357 -23.835829 -177.715118 -2.494641 -179.349413
Spine -11.388476 -1.263042 -0.151444
Head 14.069382 -3.274220 0.281899
LeftShoulder -11.932836 -29.031304 16.611799
LeftArm 6.697038 4.453483 -6.960295
LeftForeArm 10.547265 0.000000 -2.226572
LeftHand -8.772771 -0.000000 -2.555528
LeftHandThumb1 -26.253704 0.000000 33.147579
RightShoulder -11.731605 -7.018168 -6.894071
RightArm 10.279517 33.170437 8.165793
RightForeArm -36.987961 -0.000000 6.776321
RightHand -11.093799 -0.000000 4.767896
RightHandThumb1 -24.326973 -0.000000 -32.862282
LeftUpLeg 7.330221 9.375844 3.921867
LeftLeg -6.092955 -0.000000 0.000000
LeftFoot -19.376886 25.982162 -13.144456
LeftToeBase 24.542833 -0.000000 -0.000000
RightUpLeg 6.349220 -12.679490 -2.559591
RightLeg -3.638857 -0.000000 0.000000
RightFoot -21.017747 -27.391069 16.547934
RightToeBase 24.903087 -0.000000 -0.000000
55
root 18.479992 35.403360 -23.807114 -177.747184 -2.516102 -179.335754
Spine -11.262798 -1.226275 -0.146722
Head 14.630472 -3.317737 0.248598
LeftShoulder -11.726163 -29.146533 16.257682
LeftArm 6.862482 4.941783 -6.846938
LeftForeArm 10.368382 -0.000000 -2.040066
LeftHand -8.983560 -0.000000 -2.050675
LeftHandThumb1 -26.253704 0.000000 33.147579
RightShoulder -11.571458 -6.930685 -6.753580
RightArm 10.231930 32.826163 8.098422
RightForeArm -36.949080 -0.000000 6.834858
RightHand -11.076635 -0.000000 4.330158
RightHandThumb1 -24.326973 -0.000000 -32.862282
LeftUpLeg 7.285692 9.346104 3.942373
LeftLeg -6.046449 -0.000000 0.000000
LeftFoot -19.340252 25.991328 -13.127081
LeftToeBase 24.539867 -0.000000 -0.000000
RightUpLeg 6.323159 -12.695934 -2.533688
RightLeg -3.616806 -0.000000 0.000000
RightFoot -20.977404 -27.409548 16.509062
RightToeBase 25.102182 -0.000000 -0.000000
56
root 18.486603 35.408243 -23.775217 -177.782194 -2.515285 -179.327594
Spine -11.120055 -1.155652 -0.157728
Head 15.218706 -3.340328 0.266485
LeftShoulder -11.520336 -29.267079 15.940035
LeftArm 7.010930 5.254205 -6.840726
LeftForeArm 10.465156 -0.000000 -1.814362
LeftHand -8.964268 -0.000000 -1.708317
LeftHandThumb1 -26.253704 0.000000 33.147579
RightShoulder -11.462338 -6.943246 -6.596344
RightArm 10.288089 32.696858 8.175686
RightForeArm -36.971884 0.000000 6.979719
RightHand -11.079065 -0.000000 4.109992
RightHandThumb1 -24.326973 -0.000000 -32.862282
LeftUpLeg 7.236769 9.340868 3.955134
LeftLeg -5.989565 -0.000000 0.000000
LeftFoot -19.332099 26.010234 -13.152633
LeftToeBase 24.549259 -0.000000 -0.000000
RightUpLeg 6.281988 -12.717783 -2.514776
RightLeg -3.573227 -0.000000 0.000000
RightFoot -20.940660 -27.365946 16.465448
RightToeBase 25.007180 -0.000000 -0.000000
57
root 18.494973 35.413199 -23.743226 -177.817394 -2.490986 -179.313999
Spine -10.982529 -1.090470 -0.152305
Head 15.850974 -3.364281 0.239966
LeftShoulder -11.329729 -29.326374 15.609135
LeftArm 7.181662 5.647447 -6.849805
LeftForeArm 10.502355 -0.000000 -1.621001
LeftHand -9.023617 0.000000 -1.346117
LeftHandThumb1 -26.253704 0.000000 33.147579
RightShoulder -11.335881 -6.995832 -6.455846
RightArm 10.444574 32.444631 8.327620
RightForeArm -36.869462 -0.000000 7.005944
RightHand -10.939593 -0.000000 3.597827
RightHandThumb1 -24.326973 -0.000000 -32.862282
LeftUpLeg 7.202283 9.393134 3.979323
LeftLeg -5.952396 -0.000000 0.000000
LeftFoot -19.291269 25.987469 -13.155715
LeftToeBase 24.547254 -0.000000 -0.000000
RightUpLeg 6.245283 -12.676988 -2.482805
RightLeg -3.546888 -0.000000 0.000000
RightFoot -20.901707 -27.331610 16.461570
RightToeBase 24.913036 -0.000000 -0.000000
58
root 18.503360 35.418390 -23.706965 -177.846680 -2.499636 -179.300653
Spine -10.831905 -1.043601 -0.148344
Head 16.482637 -3.345178 0.262239
LeftShoulder -11.150906 -29.387723 15.301146
LeftArm 7.348558 6.155046 -6.926349
LeftForeArm 10.487491 -0.000000 -1.380939
LeftHand -8.892031 0.000000 -1.092720
LeftHandThumb1 -26.253704 0.000000 33.147579
RightShoulder -11.224084 -7.065625 -6.324360
RightArm 10.607251 32.135881 8.531046
RightForeArm -36.864870 -0.000000 7.073611
RightHand -11.087530 -0.000000 3.275219
RightHandThumb1 -24.326973 -0.000000 -32.862282
LeftUpLeg 7.140102 9.414017 3.998983
LeftLeg -5.898989 -0.000000 0.000000
LeftFoot -19.232421 25.979716 -13.119998
LeftToeBase 24.515786 -0.000000 -0.000000
RightUpLeg 6.202910 -12.682548 -2.454133
RightLeg -3.530292 -0.000000 0.000000
RightFoot -20.834441 -27.411295 16.439303
RightToeBase 25.130810 -0.000000 -0.000000
59
root 18.512681 35.423742 -23.668292 -177.880291 -2.491396 -179.291871
Spine -10.661267 -0.990304 -0.151282
Head 17.127691 -3.360421 0.270718
LeftShoulder -10.998056 -29.363986 14.988808
LeftArm 7.584632 6.580538 -7.061533
LeftForeArm 10.452944 -0.000000 -1.205699
LeftHand -8.902699 0.000000 -0.789959
LeftHandThumb1 -26.253704 0.000000 33.147579
RightShoulder -11.060641 -7.099587 -6.219227
RightArm 10.697693 31.828829 8.775059
RightForeArm -36.880842 -0.000000 7.169287
RightHand -10.904464 -0.000000 3.100646
RightHandThumb1 -24.326973 -0.000000 -32.862282
LeftUpLeg 7.083423 9.475956 4.017958
LeftLeg -5.853058 -0.000000 0.000000
LeftFoot -19.211787 25.945840 -13.142567
LeftToeBase 24.552133 -0.000000 -0.000000
RightUpLeg 6.147390 -12.644057 -2.423345
RightLeg -3.485625 -0.000000 0.000000
RightFoot -20.816836 -27.427102 16.425051
RightToeBase 25.013269 -0.000000 -0.000000
